<?xml version="1.0" standalone="no"?>
<!DOCTYPE svg PUBLIC "-//W3C//DTD SVG 20010904//EN"
 "http://www.w3.org/TR/2001/REC-SVG-20010904/DTD/svg10.dtd">
<svg version="1.0" xmlns="http://www.w3.org/2000/svg"
 width="160.000000pt" height="160.000000pt" viewBox="0 0 160.000000 160.000000"
 preserveAspectRatio="xMidYMid meet">

<g transform="translate(0.000000,160.000000) scale(0.100000,-0.100000)"
fill="#000000" stroke="none">
<path d="M675 1590 c-143 -25 -279 -89 -387 -180 -339 -283 -382 -783 -98
-1122 283 -339 783 -382 1122 -98 312 260 378 713 153 1049 -112 168 -275 284
-475 337 -68 18 -247 26 -315 14z m417 -657 l138 -138 0 -137 0 -138 -417 0
-418 0 275 275 c151 151 277 275 280 275 3 0 67 -62 142 -137z m-462 -3 l0
-130 -132 0 -133 0 130 130 c71 72 131 130 132 130 2 0 3 -58 3 -130z"/>
</g>
</svg>
